<?xml version="1.0" encoding="UTF-8"?>
<svg width="286px" height="54px" viewBox="0 0 286 54" version="1.1" xmlns="http://www.w3.org/2000/svg" xmlns:xlink="http://www.w3.org/1999/xlink">
    <!-- Generator: Sketch 64 (93537) - https://sketch.com -->
    <title>BlueBand_logo Copy</title>
    <desc>Created with Sketch.</desc>
    <defs>
        <linearGradient x1="50.0107626%" y1="-13.9642259%" x2="50.0107626%" y2="114.884519%" id="linearGradient-1">
            <stop stop-color="#19248B" offset="0.2984776%"></stop>
            <stop stop-color="#19248B" offset="41.52%"></stop>
            <stop stop-color="#19248B" offset="47.74%"></stop>
            <stop stop-color="#19248B" stop-opacity="0" offset="98.36%"></stop>
        </linearGradient>
    </defs>
    <g id="Templates" stroke="none" stroke-width="1" fill="none" fill-rule="evenodd">
        <g id="BlueBand_logo-Copy" fill-rule="nonzero">
            <g id="Group" fill="#FFFFFF">
                <path d="M275.8,47.3 C275.1,46.2 275.1,42.9 275.1,41.8 L275.1,11.2 C275.2,7.7 274.3,5.2 272.6,3.4 C270.9,1.6 268.4,0.8 265,0.8 C263,0.8 261,1.2 259.6,1.6 C258.4,1.9 257.5,2.8 257.1,4 C256.7,5.2 257,6.4 257.8,7.4 C258.7,8.5 259,10.5 259.1,12.6 C258.5,12.5 257.8,12.5 257.2,12.5 C255.1,12.5 249.7,12.9 245.1,16.7 C242.8,18.5 241.1,20.8 240,23.5 C239.8,21.8 239.3,20.1 238.4,18.5 C236.9,15.7 233.6,12.5 226.7,12.5 C223.6,12.5 220.6,13.3 217.9,15 C216.1,13.4 213.7,12.5 210.7,12.5 C208.5,12.5 206.4,13 205.3,13.3 C204.1,13.6 203.2,14.5 202.8,15.7 C202.6,16.3 202.6,16.9 202.7,17.5 C202.5,17.2 202.3,16.9 202,16.7 C199.2,13.9 195.1,12.5 189.4,12.5 C182.4,12.5 177.4,14.3 174.6,17.8 C171.7,21.5 172.1,26.3 172.8,28.5 C173,29.1 173.4,29.7 173.8,30.1 C173.2,30.7 172.6,31.4 172.2,32.1 C171.4,29.7 170.2,27.7 168.3,26.1 C170.4,23.5 171.5,20.2 171.5,16.4 C171.5,10.8 168.6,6.3 163.4,3.6 C158.7,1.2 152.8,0.7 148.7,0.7 C143.7,0.7 140,0.9 135.6,1.4 C134.3,1.5 133.3,2.3 132.7,3.4 C132.2,4.5 132.2,5.8 132.9,6.9 C133.4,7.6 134.1,9.5 134.1,14.4 L134.1,49 C134.1,50.9 135.5,52.4 137.3,52.6 L138.4,52.7 C141.8,53.1 144.7,53.4 148.6,53.4 C155.6,53.4 160.9,52.4 165,50.4 C167.5,49.1 169.4,47.4 170.7,45.3 C172.7,50.3 177.5,53.4 183.8,53.4 C187.1,53.4 190.2,52.7 192.9,51.3 C195.4,53.4 198.7,53.4 199.9,53.4 C202,53.4 204,53 205.3,52.6 C205.9,52.4 206.5,52.1 206.9,51.6 C207.6,52.3 208.5,52.7 209.4,52.7 L218.2,52.7 L229,52.7 L237.8,52.7 C239.1,52.7 240.3,52 241,50.8 C241.6,49.6 241.6,48.2 240.9,47.1 C240.5,46.5 240.4,45.4 240.3,44.3 C244.5,53.1 253.5,53.4 254.9,53.4 C257.1,53.4 259.5,52.8 261.7,51.8 C262.3,52.3 263.2,52.6 264,52.6 L272.8,52.6 C274.1,52.6 275.3,51.9 276,50.7 C276.5,49.8 276.5,48.4 275.8,47.3 Z M223.4,24.1 C222.2,24.1 220.3,24.5 218.6,25.6 L218.2,25.9 L218.2,41.7 C218.2,43.5 218.2,46.9 219.3,48.6 C219.5,48.9 219.5,49.3 219.3,49.6 C219.1,49.9 218.8,50.1 218.4,50.1 L209.6,50.1 C209.2,50.1 208.9,49.9 208.7,49.6 C207.4,47.2 207.4,43.6 207.4,41.7 L207.4,27.7 C207.4,23.1 207.3,19.6 205.4,17.4 C205.2,17.1 205.1,16.8 205.2,16.4 C205.3,16.1 205.6,15.8 205.9,15.7 C206.8,15.4 208.7,15 210.6,15 C213.4,15 215.5,15.9 216.8,17.6 L217.3,18.3 L218,17.8 C220.6,16 223.5,15 226.6,15 C232.2,15 234.8,17.6 236,19.7 C237.4,22.1 237.5,25 237.5,27.5 L237.5,41.7 C237.5,43.5 237.5,46.8 238.6,48.6 C238.8,48.9 238.8,49.3 238.6,49.6 C238.4,49.9 238.1,50.1 237.7,50.1 L229,50.1 C228.6,50.1 228.3,49.9 228.1,49.6 C226.8,47.3 226.8,43.8 226.8,41.7 L226.8,28.3 C226.8,24.8 225.5,24.1 223.4,24.1 Z M177.7,30.4 C180.5,28.5 184.3,27.5 188.4,27.5 C189.3,27.5 190.3,27.6 191.4,27.7 L192.5,27.8 L192.3,26.7 C191.8,23.9 190,23.4 187.4,23.4 C183.2,23.4 179.2,25.3 177.1,28.2 C176.9,28.5 176.5,28.7 176.1,28.6 C175.7,28.5 175.4,28.3 175.3,27.9 C174.7,26.1 174.4,22.4 176.6,19.5 C178.9,16.6 183.2,15.1 189.3,15.1 C194.2,15.1 197.8,16.2 200.1,18.5 C203.3,21.7 203.2,26.3 203.2,29.7 L203.2,38.3 C203.2,42.9 203.3,46.3 205.2,48.6 C205.4,48.9 205.5,49.2 205.4,49.6 C205.3,49.9 205,50.2 204.7,50.3 C203.5,50.6 201.7,51 200,51 C198.8,51 195.7,51 193.9,48.8 L193.4,48.2 L192.8,48.6 C190.3,50.1 187.2,50.9 183.9,50.9 C177,50.9 172.4,46.5 172.4,40 C172.5,36.1 174.3,32.7 177.7,30.4 Z M135.3,5.6 C135.1,5.3 135.1,4.9 135.2,4.6 C135.4,4.3 135.7,4.1 136,4 C140.2,3.5 143.9,3.3 148.8,3.3 C152.6,3.3 158.1,3.8 162.3,5.9 C166.6,8.1 168.9,11.7 168.9,16.4 C168.9,20.3 167.6,23.4 165.1,25.6 L164.2,26.4 L165.2,27 C168.6,29.2 170.4,32.7 170.4,37.4 C170.4,42.2 168.2,45.9 164,48 C160.4,49.9 155.4,50.8 148.8,50.8 C145,50.8 142.2,50.5 138.9,50.2 L137.8,50.1 C137.3,50 136.9,49.6 136.9,49.1 L136.9,14.5 C137,10.2 136.4,7.3 135.3,5.6 Z M261.7,15.7 L261.7,14.6 C261.7,10.7 261.3,7.6 259.7,5.7 C259.5,5.4 259.4,5.1 259.5,4.7 C259.6,4.4 259.9,4.1 260.2,4 C261.4,3.7 263.1,3.3 264.9,3.3 C267.7,3.3 269.5,3.9 270.7,5.1 C272,6.4 272.5,8.2 272.5,11 L272.5,41.6 C272.5,43.4 272.5,46.7 273.6,48.5 C273.8,48.8 273.8,49.2 273.6,49.5 C273.4,49.8 273.1,50 272.7,50 L263.9,50 C263.5,50 263.2,49.8 263,49.5 L262.5,48.3 L261.7,48.8 C259.5,50.1 257.1,50.8 254.8,50.8 C252.4,50.8 240.6,50 240.6,33.2 C240.6,26.7 242.6,21.7 246.6,18.5 C250.6,15.3 255.3,14.9 257.1,14.9 C258.3,14.9 259.5,15 260.6,15.3 L261.7,15.7 Z" id="Shape"></path>
                <path d="M109.1,12.5 C100.7,12.5 94.3,16.2 91,22.3 C90.9,20.1 90.6,17.3 89.4,15.1 C88.8,13.9 87.6,13.2 86.2,13.2 L77.4,13.2 L66.9,13.2 L58,13.2 C56.8,13.2 55.7,13.8 55.1,14.8 L55.1,11.1 C55.1,7.6 54.3,5.1 52.6,3.4 C50.9,1.6 48.4,0.8 44.9,0.8 C42.7,0.8 40.6,1.3 39.5,1.6 C38.3,1.9 37.4,2.8 37,4 C36.6,5.2 36.9,6.4 37.7,7.4 C38.5,8.3 38.8,9.8 39,11.7 C37.8,8.3 35.4,5.6 31.8,3.7 C27.1,1.3 21.2,0.8 17.1,0.8 C12.1,0.8 8.3,1 4,1.5 C2.8,1.6 1.7,2.4 1.1,3.5 C0.6,4.6 0.7,6 1.3,7 C1.8,7.7 2.5,9.6 2.5,14.5 L2.5,49.1 C2.5,51 3.9,52.5 5.7,52.7 L6.8,52.8 C10.2,53.2 13.1,53.5 17,53.5 C24,53.5 29.4,52.5 33.4,50.5 C36,49.2 37.9,47.4 39.3,45.1 C39.5,47 39.8,49.1 40.8,50.9 C41.4,52.1 42.6,52.8 44,52.8 L52.8,52.8 C54.1,52.8 62.4,53.6 69.3,53.6 C72.3,53.6 75.3,52.8 77.9,51.2 C79.6,52.8 82.1,53.6 85.3,53.6 C87.3,53.6 89.4,53.2 90.7,52.8 C91.9,52.5 92.8,51.6 93.2,50.4 C93.6,49.2 93.3,48 92.5,47 C91.9,46.3 91.6,45.4 91.4,44.2 C92.1,45.5 93,46.7 94,47.8 C97.6,51.6 102.6,53.6 108.5,53.6 C115.5,53.6 120.5,51.8 123.3,48.3 C126.6,44.1 125.5,39.1 125.1,37.7 L125,37.3 C125.6,36.7 126,36 126.1,35.1 C126.3,33.6 126.4,31.8 126.4,30.7 C126.4,25.4 124.7,20.8 121.4,17.5 C118.2,14.2 113.8,12.5 109.1,12.5 Z M78.3,47.7 L77.6,48.2 C75,50 72.2,50.9 69.2,50.9 C63.6,50.9 61,48.3 59.8,46.2 C58.4,43.8 58.3,40.9 58.3,38.4 L58.3,24.2 C58.3,22.4 58.3,19.1 57.2,17.3 C57,17 57,16.6 57.2,16.3 C57.4,16 57.7,15.8 58.1,15.8 L66.9,15.8 C67.3,15.8 67.6,16 67.8,16.3 C69.1,18.7 69.1,22.1 69.1,24.2 L69.1,37.6 C69.1,41.1 70.4,41.8 72.4,41.8 C73.6,41.8 75.5,41.4 77.2,40.3 L77.6,40 L77.6,24.2 C77.6,22.4 77.6,19.1 76.5,17.3 C76.3,17 76.3,16.6 76.5,16.3 C76.7,16 77,15.8 77.4,15.8 L86.2,15.8 C86.6,15.8 86.9,16 87.1,16.3 C88.4,18.7 88.4,22.3 88.4,24.2 L88.4,38.2 C88.4,42.8 88.5,46.2 90.4,48.5 C90.6,48.8 90.7,49.1 90.6,49.5 C90.5,49.8 90.2,50.1 89.9,50.2 C88.7,50.5 86.9,50.9 85.2,50.9 C82.2,50.9 80,50.1 78.8,48.4 L78.3,47.7 Z M122.4,35.5 L102.6,35.5 L103,36.6 C104.2,40.3 106.9,42.4 110.4,42.4 C114.7,42.4 118.5,40.7 120.8,37.9 C121,37.6 121.4,37.5 121.8,37.5 C122.2,37.6 122.5,37.9 122.6,38.2 C122.9,39.3 123.8,43.3 121.3,46.5 C119,49.4 114.7,50.9 108.6,50.9 C103.4,50.9 99,49.2 96,45.9 C92.9,42.6 91.3,38 91.3,32.4 C91.3,22 98.5,15 109.3,15 C113.4,15 117.1,16.5 119.7,19.1 C122.5,21.9 124,25.8 124,30.4 C124,31.5 123.9,33.1 123.7,34.5 C123.4,35.1 123,35.5 122.4,35.5 Z M39.7,5.7 C39.5,5.4 39.4,5.1 39.5,4.7 C39.6,4.4 39.9,4.1 40.2,4 C41.1,3.7 43,3.3 44.9,3.3 C47.7,3.3 49.5,3.9 50.7,5.1 C51.9,6.4 52.5,8.2 52.5,11 L52.5,41.6 C52.5,43.4 52.5,46.7 53.6,48.5 C53.8,48.8 53.8,49.2 53.6,49.5 C53.4,49.8 53.1,50 52.7,50 L43.9,50 C43.5,50 43.2,49.8 43,49.5 C41.7,47.1 41.7,43.5 41.7,41.6 L41.7,16 C41.7,11.4 41.6,8 39.7,5.7 Z M3.5,5.6 C3.3,5.3 3.3,4.9 3.4,4.6 C3.6,4.3 3.9,4.1 4.2,4 C8.4,3.5 12.1,3.3 17,3.3 C20.8,3.3 26.3,3.8 30.6,5.9 C34.9,8.1 37.2,11.7 37.2,16.4 C37.2,20.3 35.9,23.4 33.4,25.6 L32.5,26.4 L33.5,27 C36.9,29.2 38.7,32.7 38.7,37.4 C38.7,42.2 36.5,45.9 32.3,48 C28.7,49.9 23.7,50.8 17.1,50.8 C13.3,50.8 10.5,50.5 7.2,50.2 L6.1,50.1 C5.6,50 5.2,49.6 5.2,49.1 L5.2,14.5 C5.1,10.2 4.6,7.3 3.5,5.6 Z" id="Shape"></path>
                <path d="M251.4,32.9 C251.4,35.3 251.8,43 257.2,43 C258.2,43 259.8,42.4 261.5,40.8 L261.8,40.5 L261.8,23.2 L261.3,23 C260.2,22.6 259.1,22.4 257.8,22.4 C254,22.5 251.4,26.9 251.4,32.9 Z" id="Path"></path>
                <path d="M19.1,42.9 C24.4,42.9 26.7,41.1 26.7,37 C26.7,32.8 24.1,30.6 18.9,30.6 C18.3,30.6 17.8,30.6 17.2,30.6 L16.4,30.6 L16.4,42.8 L17.3,42.8 C17.8,42.9 18.5,42.9 19.1,42.9 Z" id="Path"></path>
                <path d="M18.5,23.1 C24.6,23.1 25.3,19.7 25.3,17.1 C25.3,14.5 24.6,11.1 18.3,11.1 L16.4,11.1 L16.4,23 L17.2,23 C17.7,23.1 18.1,23.1 18.5,23.1 Z" id="Path"></path>
                <path d="M150.4,23.1 C156.4,23.1 157.1,19.7 157.1,17.1 C157.1,14.5 156.4,11.1 150.1,11.1 L148.2,11.1 L148.2,23 L149,23 C149.5,23.1 149.9,23.1 150.4,23.1 Z" id="Path"></path>
                <path d="M150.9,42.9 C156.2,42.9 158.5,41.1 158.5,37 C158.5,32.8 155.9,30.6 150.8,30.6 C150.2,30.6 149.6,30.6 149.1,30.6 L148.3,30.6 L148.3,42.8 L149.2,42.8 C149.7,42.9 150.3,42.9 150.9,42.9 Z" id="Path"></path>
                <path d="M108.2,23.4 C105.5,23.4 103.7,24.7 102.9,27.2 L102.5,28.3 L112.9,28.3 L112.7,27.3 C111.9,23.4 109.2,23.4 108.2,23.4 Z" id="Path"></path>
                <path d="M187.3,43 C189,43 190.8,42.3 192.3,40.9 L192.6,40.6 L192.6,34.9 L191.8,34.8 C191,34.7 190.3,34.7 189.8,34.7 C183.8,34.7 183.2,38.1 183.2,39.5 C183.1,40.6 183.5,43 187.3,43 Z" id="Path"></path>
            </g>
            <g id="Group" transform="translate(3.000000, 3.000000)">
                <path d="M269.5,38.7 L269.5,8.1 C269.5,5.3 269,3.5 267.7,2.2 C266.5,0.9 264.7,0.4 261.9,0.4 C260.1,0.4 258.4,0.8 257.2,1.1 C256.9,1.2 256.6,1.4 256.5,1.8 C256.4,2.1 256.5,2.5 256.7,2.8 C258.3,4.7 258.6,7.8 258.7,11.7 L258.7,12.8 L257.6,12.6 C256.5,12.3 255.3,12.2 254.1,12.2 C252.3,12.2 247.6,12.6 243.6,15.8 C239.6,19 237.6,24 237.6,30.5 C237.6,47.2 249.4,48.1 251.8,48.1 C254.1,48.1 256.5,47.4 258.7,46.1 L259.5,45.6 L260,46.8 C260.2,47.1 260.5,47.3 260.9,47.3 L269.7,47.3 C270.1,47.3 270.4,47.1 270.6,46.8 C270.8,46.5 270.8,46.1 270.6,45.8 C269.5,43.9 269.5,40.5 269.5,38.7 Z M258.7,37.6 L258.4,37.9 C256.8,39.5 255.1,40.1 254.1,40.1 C248.7,40.1 248.3,32.3 248.3,30 C248.3,23.9 250.9,19.6 254.6,19.6 C255.9,19.6 257,19.8 258.1,20.2 L258.6,20.4 L258.6,37.6 L258.7,37.6 Z M30.5,24.1 L29.5,23.5 L30.4,22.7 C32.9,20.5 34.2,17.4 34.2,13.5 C34.2,8.9 31.9,5.2 27.6,3 C23.3,0.8 17.9,0.4 14,0.4 C9.1,0.4 5.4,0.6 1.2,1.1 C0.9,1.1 0.5,1.4 0.4,1.7 C0.2,2 0.3,2.4 0.5,2.7 C1.6,4.4 2.1,7.3 2.1,11.6 L2.1,46.2 C2.1,46.7 2.5,47.2 3,47.2 L4.1,47.3 C7.4,47.6 10.2,47.9 14,47.9 C20.6,47.9 25.6,47 29.2,45.1 C33.4,42.9 35.6,39.3 35.6,34.5 C35.7,29.8 33.9,26.3 30.5,24.1 Z M13.4,8.1 L15.3,8.1 C21.6,8.1 22.3,11.5 22.3,14.1 C22.3,16.7 21.6,20.1 15.5,20.1 C15.1,20.1 14.6,20.1 14.2,20.1 L13.4,20.1 L13.4,8.1 L13.4,8.1 Z M16.1,39.9 C15.5,39.9 14.8,39.9 14.2,39.9 L13.3,39.9 L13.3,27.7 L14.1,27.7 C14.7,27.7 15.3,27.7 15.8,27.7 C20.9,27.7 23.6,29.8 23.6,34.1 C23.7,38.2 21.4,39.9 16.1,39.9 Z M50.6,45.6 C50.8,45.9 50.8,46.3 50.6,46.6 C50.4,46.9 50.1,47.1 49.7,47.1 L40.9,47.1 C40.5,47.1 40.2,46.9 40,46.6 C38.7,44.2 38.7,40.6 38.7,38.7 L38.7,13 C38.7,8.4 38.6,4.9 36.7,2.7 C36.5,2.4 36.4,2.1 36.5,1.7 C36.6,1.4 36.9,1.1 37.2,1 C38.1,0.7 40,0.3 41.9,0.3 C44.7,0.3 46.5,0.9 47.7,2.1 C48.9,3.4 49.5,5.2 49.5,8 L49.5,38.6 C49.5,40.5 49.5,43.9 50.6,45.6 Z M162.3,24.1 L161.3,23.5 L162.2,22.7 C164.7,20.5 166,17.4 166,13.5 C166,8.9 163.7,5.2 159.4,3 C155.1,0.8 149.7,0.4 145.9,0.4 C141,0.4 137.3,0.6 133.1,1.1 C132.7,1.1 132.4,1.4 132.3,1.7 C132.1,2 132.2,2.4 132.4,2.7 C133.5,4.4 134,7.3 134,11.6 L134,46.2 C134,46.7 134.4,47.2 134.9,47.2 L136,47.3 C139.3,47.7 142.2,47.9 145.9,47.9 C152.5,47.9 157.4,47 161.1,45.1 C165.3,42.9 167.5,39.3 167.5,34.5 C167.5,29.8 165.7,26.3 162.3,24.1 Z M145.2,8.1 L147.1,8.1 C153.3,8.1 154.1,11.5 154.1,14.1 C154.1,16.7 153.4,20.1 147.4,20.1 C147,20.1 146.5,20.1 146.1,20.1 L145.3,20.1 L145.3,8.1 L145.2,8.1 Z M147.9,39.9 C147.3,39.9 146.6,39.9 146,39.9 L145.1,39.9 L145.1,27.7 L145.9,27.7 C146.5,27.7 147.1,27.7 147.6,27.7 C152.7,27.7 155.3,29.8 155.3,34.1 C155.5,38.2 153.3,39.9 147.9,39.9 Z M234.6,38.7 C234.6,40.5 234.6,43.8 235.7,45.6 C235.9,45.9 235.9,46.3 235.7,46.6 C235.5,46.9 235.2,47.1 234.8,47.1 L226,47.1 C225.6,47.1 225.3,46.9 225.1,46.6 C223.8,44.3 223.8,40.8 223.8,38.7 L223.8,25.3 C223.8,21.8 222.5,21.1 220.5,21.1 C219.3,21.1 217.4,21.5 215.7,22.6 L215.3,22.9 L215.3,38.7 C215.3,40.5 215.3,43.9 216.4,45.6 C216.6,45.9 216.6,46.3 216.4,46.6 C216.2,46.9 215.9,47.1 215.5,47.1 L206.7,47.1 C206.3,47.1 206,46.9 205.8,46.6 C204.5,44.2 204.5,40.6 204.5,38.7 L204.5,24.7 C204.5,20.1 204.4,16.6 202.5,14.4 C202.3,14.1 202.2,13.8 202.3,13.4 C202.4,13.1 202.7,12.8 203,12.7 C203.9,12.4 205.8,12 207.7,12 C210.5,12 212.6,12.9 213.9,14.6 L214.4,15.3 L215.1,14.8 C217.7,13 220.6,12 223.7,12 C229.3,12 231.9,14.6 233.1,16.7 C234.5,19.1 234.6,22 234.6,24.5 L234.6,38.7 Z M106.1,12.1 C95.4,12.1 88.1,19.1 88.1,29.5 C88.1,35.1 89.7,39.8 92.8,43 C95.9,46.2 100.2,48 105.4,48 C111.6,48 115.8,46.5 118.1,43.6 C120.6,40.4 119.8,36.4 119.4,35.3 C119.3,34.9 119,34.7 118.6,34.6 C118.2,34.5 117.8,34.7 117.6,35 C115.4,37.8 111.5,39.5 107.2,39.5 C103.7,39.5 100.9,37.4 99.8,33.7 L99.4,32.6 L119.2,32.6 C119.7,32.6 120.1,32.2 120.2,31.7 C120.4,30.3 120.5,28.7 120.5,27.6 C120.5,23 119,19.1 116.2,16.3 C113.8,13.5 110.1,12.1 106.1,12.1 Z M99.5,25.4 L99.9,24.3 C100.7,21.8 102.6,20.5 105.2,20.5 C106.2,20.5 108.9,20.5 109.7,24.4 L109.9,25.4 L99.5,25.4 L99.5,25.4 Z M85.4,35.3 C85.4,39.9 85.5,43.3 87.4,45.6 C87.6,45.9 87.7,46.2 87.6,46.6 C87.5,46.9 87.2,47.2 86.9,47.3 C85.7,47.6 83.9,48 82.2,48 C79.2,48 77,47.2 75.8,45.5 L75.3,44.8 L74.6,45.3 C72,47.1 69.2,48 66.2,48 C60.6,48 58,45.4 56.8,43.3 C55.4,40.9 55.3,38 55.3,35.5 L55.3,21.3 C55.3,19.5 55.3,16.2 54.2,14.4 C54,14.1 54,13.7 54.2,13.4 C54.4,13.1 54.7,12.9 55.1,12.9 L63.9,12.9 C64.3,12.9 64.6,13.1 64.8,13.4 C66.1,15.8 66.1,19.2 66.1,21.3 L66.1,34.7 C66.1,38.2 67.4,38.9 69.4,38.9 C70.6,38.9 72.5,38.5 74.2,37.4 L74.6,37.1 L74.6,21.3 C74.6,19.5 74.6,16.2 73.5,14.4 C73.3,14.1 73.3,13.7 73.5,13.4 C73.7,13.1 74,12.9 74.4,12.9 L83.2,12.9 C83.6,12.9 83.9,13.1 84.1,13.4 C85.4,15.8 85.4,19.4 85.4,21.3 L85.4,35.3 L85.4,35.3 Z M181,47.9 C184.3,47.9 187.4,47.1 189.9,45.6 L190.5,45.2 L191,45.8 C192.8,48 195.9,48 197.1,48 C198.9,48 200.6,47.6 201.8,47.3 C202.1,47.2 202.4,47 202.5,46.6 C202.6,46.3 202.5,45.9 202.3,45.6 C200.4,43.4 200.3,39.9 200.3,35.3 L200.3,26.7 C200.3,23.3 200.3,18.6 197.2,15.5 C194.9,13.2 191.4,12.1 186.4,12.1 C180.2,12.1 176,13.6 173.7,16.5 C171.5,19.3 171.8,23.1 172.4,24.9 C172.5,25.3 172.8,25.5 173.2,25.6 C173.6,25.7 174,25.5 174.2,25.2 C176.3,22.3 180.3,20.4 184.5,20.4 C187.1,20.4 188.9,21 189.4,23.7 L189.6,24.8 L188.5,24.7 C187.4,24.6 186.4,24.5 185.5,24.5 C181.4,24.5 177.6,25.5 174.8,27.4 C171.4,29.6 169.6,33.1 169.6,37.1 C169.5,43.6 174.1,47.9 181,47.9 Z M186.7,31.7 C187.2,31.7 188,31.8 188.7,31.8 L189.5,31.9 L189.5,37.6 L189.2,37.9 C187.7,39.2 186,40 184.2,40 C180.5,40 180.1,37.6 180.1,36.5 C180.1,35.1 180.8,31.7 186.7,31.7 Z" id="Shape" fill="#40BFEF"></path>
                <path d="M269.5,38.7 L269.5,8.1 C269.5,5.3 269,3.5 267.7,2.2 C266.5,0.9 264.7,0.4 261.9,0.4 C260.1,0.4 258.4,0.8 257.2,1.1 C256.9,1.2 256.6,1.4 256.5,1.8 C256.4,2.1 256.5,2.5 256.7,2.8 C258.3,4.7 258.6,7.8 258.7,11.7 L258.7,12.8 L257.6,12.6 C256.5,12.3 255.3,12.2 254.1,12.2 C252.3,12.2 247.6,12.6 243.6,15.8 C239.6,19 237.6,24 237.6,30.5 C237.6,47.2 249.4,48.1 251.8,48.1 C254.1,48.1 256.5,47.4 258.7,46.1 L259.5,45.6 L260,46.8 C260.2,47.1 260.5,47.3 260.9,47.3 L269.7,47.3 C270.1,47.3 270.4,47.1 270.6,46.8 C270.8,46.5 270.8,46.1 270.6,45.8 C269.5,43.9 269.5,40.5 269.5,38.7 Z M258.7,37.6 L258.4,37.9 C256.8,39.5 255.1,40.1 254.1,40.1 C248.7,40.1 248.3,32.3 248.3,30 C248.3,23.9 250.9,19.6 254.6,19.6 C255.9,19.6 257,19.8 258.1,20.2 L258.6,20.4 L258.6,37.6 L258.7,37.6 Z M30.5,24.1 L29.5,23.5 L30.4,22.7 C32.9,20.5 34.2,17.4 34.2,13.5 C34.2,8.9 31.9,5.2 27.6,3 C23.3,0.8 17.9,0.4 14,0.4 C9.1,0.4 5.4,0.6 1.2,1.1 C0.9,1.1 0.5,1.4 0.4,1.7 C0.2,2 0.3,2.4 0.5,2.7 C1.6,4.4 2.1,7.3 2.1,11.6 L2.1,46.2 C2.1,46.7 2.5,47.2 3,47.2 L4.1,47.3 C7.4,47.6 10.2,47.9 14,47.9 C20.6,47.9 25.6,47 29.2,45.1 C33.4,42.9 35.6,39.3 35.6,34.5 C35.7,29.8 33.9,26.3 30.5,24.1 Z M13.4,8.1 L15.3,8.1 C21.6,8.1 22.3,11.5 22.3,14.1 C22.3,16.7 21.6,20.1 15.5,20.1 C15.1,20.1 14.6,20.1 14.2,20.1 L13.4,20.1 L13.4,8.1 L13.4,8.1 Z M16.1,39.9 C15.5,39.9 14.8,39.9 14.2,39.9 L13.3,39.9 L13.3,27.7 L14.1,27.7 C14.7,27.7 15.3,27.7 15.8,27.7 C20.9,27.7 23.6,29.8 23.6,34.1 C23.7,38.2 21.4,39.9 16.1,39.9 Z M50.6,45.6 C50.8,45.9 50.8,46.3 50.6,46.6 C50.4,46.9 50.1,47.1 49.7,47.1 L40.9,47.1 C40.5,47.1 40.2,46.9 40,46.6 C38.7,44.2 38.7,40.6 38.7,38.7 L38.7,13 C38.7,8.4 38.6,4.9 36.7,2.7 C36.5,2.4 36.4,2.1 36.5,1.7 C36.6,1.4 36.9,1.1 37.2,1 C38.1,0.7 40,0.3 41.9,0.3 C44.7,0.3 46.5,0.9 47.7,2.1 C48.9,3.4 49.5,5.2 49.5,8 L49.5,38.6 C49.5,40.5 49.5,43.9 50.6,45.6 Z M162.3,24.1 L161.3,23.5 L162.2,22.7 C164.7,20.5 166,17.4 166,13.5 C166,8.9 163.7,5.2 159.4,3 C155.1,0.8 149.7,0.4 145.9,0.4 C141,0.4 137.3,0.6 133.1,1.1 C132.7,1.1 132.4,1.4 132.3,1.7 C132.1,2 132.2,2.4 132.4,2.7 C133.5,4.4 134,7.3 134,11.6 L134,46.2 C134,46.7 134.4,47.2 134.9,47.2 L136,47.3 C139.3,47.7 142.2,47.9 145.9,47.9 C152.5,47.9 157.4,47 161.1,45.1 C165.3,42.9 167.5,39.3 167.5,34.5 C167.5,29.8 165.7,26.3 162.3,24.1 Z M145.2,8.1 L147.1,8.1 C153.3,8.1 154.1,11.5 154.1,14.1 C154.1,16.7 153.4,20.1 147.4,20.1 C147,20.1 146.5,20.1 146.1,20.1 L145.3,20.1 L145.3,8.1 L145.2,8.1 Z M147.9,39.9 C147.3,39.9 146.6,39.9 146,39.9 L145.1,39.9 L145.1,27.7 L145.9,27.7 C146.5,27.7 147.1,27.7 147.6,27.7 C152.7,27.7 155.3,29.8 155.3,34.1 C155.5,38.2 153.3,39.9 147.9,39.9 Z M234.6,38.7 C234.6,40.5 234.6,43.8 235.7,45.6 C235.9,45.9 235.9,46.3 235.7,46.6 C235.5,46.9 235.2,47.1 234.8,47.1 L226,47.1 C225.6,47.1 225.3,46.9 225.1,46.6 C223.8,44.3 223.8,40.8 223.8,38.7 L223.8,25.3 C223.8,21.8 222.5,21.1 220.5,21.1 C219.3,21.1 217.4,21.5 215.7,22.6 L215.3,22.9 L215.3,38.7 C215.3,40.5 215.3,43.9 216.4,45.6 C216.6,45.9 216.6,46.3 216.4,46.6 C216.2,46.9 215.9,47.1 215.5,47.1 L206.7,47.1 C206.3,47.1 206,46.9 205.8,46.6 C204.5,44.2 204.5,40.6 204.5,38.7 L204.5,24.7 C204.5,20.1 204.4,16.6 202.5,14.4 C202.3,14.1 202.2,13.8 202.3,13.4 C202.4,13.1 202.7,12.8 203,12.7 C203.9,12.4 205.8,12 207.7,12 C210.5,12 212.6,12.9 213.9,14.6 L214.4,15.3 L215.1,14.8 C217.7,13 220.6,12 223.7,12 C229.3,12 231.9,14.6 233.1,16.7 C234.5,19.1 234.6,22 234.6,24.5 L234.6,38.7 Z M106.1,12.1 C95.4,12.1 88.1,19.1 88.1,29.5 C88.1,35.1 89.7,39.8 92.8,43 C95.9,46.2 100.2,48 105.4,48 C111.6,48 115.8,46.5 118.1,43.6 C120.6,40.4 119.8,36.4 119.4,35.3 C119.3,34.9 119,34.7 118.6,34.6 C118.2,34.5 117.8,34.7 117.6,35 C115.4,37.8 111.5,39.5 107.2,39.5 C103.7,39.5 100.9,37.4 99.8,33.7 L99.4,32.6 L119.2,32.6 C119.7,32.6 120.1,32.2 120.2,31.7 C120.4,30.3 120.5,28.7 120.5,27.6 C120.5,23 119,19.1 116.2,16.3 C113.8,13.5 110.1,12.1 106.1,12.1 Z M99.5,25.4 L99.9,24.3 C100.7,21.8 102.6,20.5 105.2,20.5 C106.2,20.5 108.9,20.5 109.7,24.4 L109.9,25.4 L99.5,25.4 L99.5,25.4 Z M85.4,35.3 C85.4,39.9 85.5,43.3 87.4,45.6 C87.6,45.9 87.7,46.2 87.6,46.6 C87.5,46.9 87.2,47.2 86.9,47.3 C85.7,47.6 83.9,48 82.2,48 C79.2,48 77,47.2 75.8,45.5 L75.3,44.8 L74.6,45.3 C72,47.1 69.2,48 66.2,48 C60.6,48 58,45.4 56.8,43.3 C55.4,40.9 55.3,38 55.3,35.5 L55.3,21.3 C55.3,19.5 55.3,16.2 54.2,14.4 C54,14.1 54,13.7 54.2,13.4 C54.4,13.1 54.7,12.9 55.1,12.9 L63.9,12.9 C64.3,12.9 64.6,13.1 64.8,13.4 C66.1,15.8 66.1,19.2 66.1,21.3 L66.1,34.7 C66.1,38.2 67.4,38.9 69.4,38.9 C70.6,38.9 72.5,38.5 74.2,37.4 L74.6,37.1 L74.6,21.3 C74.6,19.5 74.6,16.2 73.5,14.4 C73.3,14.1 73.3,13.7 73.5,13.4 C73.7,13.1 74,12.9 74.4,12.9 L83.2,12.9 C83.6,12.9 83.9,13.1 84.1,13.4 C85.4,15.8 85.4,19.4 85.4,21.3 L85.4,35.3 L85.4,35.3 Z M181,47.9 C184.3,47.9 187.4,47.1 189.9,45.6 L190.5,45.2 L191,45.8 C192.8,48 195.9,48 197.1,48 C198.9,48 200.6,47.6 201.8,47.3 C202.1,47.2 202.4,47 202.5,46.6 C202.6,46.3 202.5,45.9 202.3,45.6 C200.4,43.4 200.3,39.9 200.3,35.3 L200.3,26.7 C200.3,23.3 200.3,18.6 197.2,15.5 C194.9,13.2 191.4,12.1 186.4,12.1 C180.2,12.1 176,13.6 173.7,16.5 C171.5,19.3 171.8,23.1 172.4,24.9 C172.5,25.3 172.8,25.5 173.2,25.6 C173.6,25.7 174,25.5 174.2,25.2 C176.3,22.3 180.3,20.4 184.5,20.4 C187.1,20.4 188.9,21 189.4,23.7 L189.6,24.8 L188.5,24.7 C187.4,24.6 186.4,24.5 185.5,24.5 C181.4,24.5 177.6,25.5 174.8,27.4 C171.4,29.6 169.6,33.1 169.6,37.1 C169.5,43.6 174.1,47.9 181,47.9 Z M186.7,31.7 C187.2,31.7 188,31.8 188.7,31.8 L189.5,31.9 L189.5,37.6 L189.2,37.9 C187.7,39.2 186,40 184.2,40 C180.5,40 180.1,37.6 180.1,36.5 C180.1,35.1 180.8,31.7 186.7,31.7 Z" id="Shape" fill="url(#linearGradient-1)"></path>
            </g>
            <path d="M281.2,0.1 C278.6,0.1 276.5,2.2 276.5,4.8 C276.5,7.4 278.6,9.5 281.2,9.5 C283.8,9.5 285.9,7.4 285.9,4.8 C285.9,2.3 283.8,0.1 281.2,0.1 Z M281.2,8.9 C279,8.9 277.1,7.1 277.1,4.8 C277.1,2.6 278.9,0.7 281.2,0.7 C283.5,0.7 285.3,2.5 285.3,4.8 C285.3,7.1 283.5,8.9 281.2,8.9 Z M282.4,5.3 L282,5.1 C282.5,5 282.8,4.9 283.1,4.6 C283.3,4.4 283.4,4.1 283.4,3.7 C283.4,3.4 283.3,3.2 283.2,3 C283.1,2.8 282.9,2.6 282.7,2.5 C282.5,2.4 282.1,2.4 281.7,2.4 L279.5,2.4 L279.5,7.3 L280.2,7.3 L280.2,5.1 L281,5.1 L281.4,5.1 L281.7,5.2 L282,5.5 C282.1,5.7 282.3,5.9 282.5,6.2 L283.2,7.2 L284,7.2 L283,6 C282.8,5.7 282.6,5.5 282.4,5.3 Z M281.5,4.6 L280.1,4.6 L280.1,3 L281.7,3 C282.1,3 282.3,3.1 282.5,3.2 C282.7,3.3 282.8,3.5 282.8,3.8 L282.7,4.2 L282.3,4.5 C282.1,4.5 281.8,4.6 281.5,4.6 Z" id="Shape" fill="#19248B"></path>
        </g>
    </g>
</svg>